<mxfile host="app.diagrams.net" modified="2024-03-01T03:51:26.000Z" agent="Mozilla/5.0 (Windows NT 10.0; Win64; x64) AppleWebKit/537.36 (KHTML, like Gecko) Chrome/122.0.0.0 Safari/537.36" version="23.1.8" etag="8KW-RIEgQYr0AC5VMfI8" type="github">
  <diagram name="Halaman-1" id="MFpgc4Oxa8c6CdZU6i-b">
    <mxGraphModel>
      <root>
        <mxCell id="0" />
        <mxCell id="1" parent="0" />
      </root>
    </mxGraphModel>
  </diagram>
</mxfile>
